<svg width="40" height="41" viewBox="0 0 40 41" fill="none" xmlns="http://www.w3.org/2000/svg">
<rect width="40" height="40" rx="20" fill="url(#paint0_linear_213_3)"/>
<path d="M26.7344 13.0938C26.7344 11.0208 25.3646 9.98438 22.625 9.98438C20.9062 9.98438 19.1667 10.5052 17.4062 11.5469C16.8958 11.849 16.4948 12.1302 16.2031 12.3906C15.9219 12.6406 15.651 12.7656 15.3906 12.7656C15.1302 12.7656 14.8802 12.7031 14.6406 12.5781C14.401 12.4427 14.1875 12.276 14 12.0781C13.3125 11.3177 13.3854 10.5833 14.2188 9.875C15.4688 8.80208 17.5417 8.10938 20.4375 7.79688C21.0208 7.73438 21.7604 7.70312 22.6562 7.70312C23.5521 7.70312 24.4948 7.86458 25.4844 8.1875C26.4844 8.51042 27.3229 8.94792 28 9.5C29.3542 10.6146 30.0312 12.0365 30.0312 13.7656C30.0312 15.8177 29.0938 17.6875 27.2188 19.375C25.5938 20.8542 23.6719 21.9115 21.4531 22.5469C22.0573 23.0469 22.625 23.7656 23.1562 24.7031L24.4062 26.9375C25.5 28.9688 26.4792 30.0729 27.3438 30.25C27.6458 30.3021 27.9583 30.2917 28.2812 30.2188C28.6042 30.1458 28.8125 30.1146 28.9062 30.125C29.0104 30.125 29.0781 30.2083 29.1094 30.375C29.151 30.5417 29.1094 30.75 28.9844 31C28.8594 31.25 28.6562 31.4844 28.375 31.7031C27.7188 32.224 27 32.4531 26.2188 32.3906C25.4375 32.3385 24.8021 32.1823 24.3125 31.9219C23.8333 31.651 23.401 31.3125 23.0156 30.9062C22.6406 30.5 22.3021 30.0469 22 29.5469C21.7083 29.0469 21.4375 28.5365 21.1875 28.0156L20.4844 26.4844C20.2656 25.9844 20.0625 25.5573 19.875 25.2031C19.6875 24.8385 19.526 24.5104 19.3906 24.2188C19.2552 23.9167 19.1042 23.6458 18.9375 23.4062C18.5833 22.8646 18.1302 22.5208 17.5781 22.375C15.3906 28 13.1667 31.2083 10.9062 32C10.7188 32.0729 10.526 32.1094 10.3281 32.1094C10.1406 32.1094 9.96875 32.0729 9.8125 32C9.65625 31.9375 9.52604 31.8542 9.42188 31.75C9.20312 31.5521 9.09375 31.3333 9.09375 31.0938C9.09375 30.8542 9.17188 30.6771 9.32812 30.5625C10.8906 29.4271 12.625 26.1146 14.5312 20.625L15.4688 17.9844C16.5417 14.9427 17.4479 13.0677 18.1875 12.3594C18.4479 12.1615 18.7188 12.0625 19 12.0625C19.2812 12.0625 19.526 12.1094 19.7344 12.2031C19.9427 12.2865 20.125 12.3958 20.2812 12.5312C20.6354 12.8438 20.8125 13.1615 20.8125 13.4844C20.8125 13.8073 20.7396 14.099 20.5938 14.3594C20.4583 14.6094 20.3021 14.9635 20.125 15.4219C19.6146 16.7552 19.2188 17.8229 18.9375 18.625L18.1406 20.875C20.3594 20.5833 22.3229 19.7135 24.0312 18.2656C25.8333 16.7448 26.7344 15.0208 26.7344 13.0938Z" fill="black"/>
<defs>
<linearGradient id="paint0_linear_213_3" x1="0" y1="0" x2="39.9999" y2="0.0560481" gradientUnits="userSpaceOnUse">
<stop stop-color="#F7F7F7"/>
<stop offset="1" stop-color="#F6F6F6" stop-opacity="0.66"/>
</linearGradient>
</defs>
</svg>
