<?xml version="1.0" standalone="no"?>
<!DOCTYPE svg PUBLIC "-//W3C//DTD SVG 20010904//EN"
 "http://www.w3.org/TR/2001/REC-SVG-20010904/DTD/svg10.dtd">
<svg version="1.0" xmlns="http://www.w3.org/2000/svg"
 width="656.000000pt" height="656.000000pt" viewBox="0 0 656.000000 656.000000"
 preserveAspectRatio="xMidYMid meet">
<metadata>
Created by potrace 1.14, written by Peter Selinger 2001-2017
</metadata>
<g transform="translate(0.000000,656.000000) scale(0.100000,-0.100000)"
fill="#000000" stroke="none">
<path d="M3490 5324 c-341 -19 -704 -101 -921 -209 -324 -160 -403 -331 -233
-502 58 -57 134 -93 199 -93 56 0 80 12 178 89 176 138 442 263 677 318 143
33 385 42 516 19 284 -49 423 -181 449 -427 15 -138 -29 -341 -106 -489 -142
-274 -464 -547 -815 -691 -149 -61 -444 -133 -444 -109 0 35 299 844 367 992
72 158 69 231 -12 312 -115 114 -276 127 -372 28 -80 -82 -180 -269 -292 -546
-57 -140 -76 -193 -247 -676 -329 -928 -579 -1426 -827 -1643 -64 -56 -67 -61
-67 -103 0 -61 22 -100 77 -134 67 -42 118 -47 206 -19 336 108 698 612 1023
1423 52 130 48 128 130 80 104 -59 198 -215 394 -649 171 -379 278 -562 405
-690 163 -166 333 -233 564 -223 89 3 105 7 174 41 162 80 267 229 213 302
-13 18 -18 18 -95 6 -176 -29 -249 -7 -365 112 -97 98 -167 205 -349 528 -211
376 -242 422 -346 524 -28 28 -51 52 -51 55 0 3 21 12 47 18 76 21 261 96 368
150 203 102 372 221 534 377 230 221 363 450 401 690 24 149 10 349 -33 471
-77 215 -257 405 -492 519 -95 46 -267 102 -383 126 -97 19 -333 31 -472 23z"/>
</g>
</svg>
